<svg width="25" height="24" viewBox="0 0 25 24" fill="none" xmlns="http://www.w3.org/2000/svg">
<path d="M12.6875 1.5C6.88906 1.5 2.1875 6.20156 2.1875 12C2.1875 17.7984 6.88906 22.5 12.6875 22.5C18.4859 22.5 23.1875 17.7984 23.1875 12C23.1875 6.20156 18.4859 1.5 12.6875 1.5ZM16.5641 15.9891L15.0172 15.982L12.6875 13.2047L10.3602 15.9797L8.81094 15.9867C8.70781 15.9867 8.62344 15.9047 8.62344 15.7992C8.62344 15.7547 8.63984 15.7125 8.66797 15.6773L11.7172 12.0445L8.66797 8.41406C8.63965 8.37971 8.62393 8.3367 8.62344 8.29219C8.62344 8.18906 8.70781 8.10469 8.81094 8.10469L10.3602 8.11172L12.6875 10.8891L15.0148 8.11406L16.5617 8.10703C16.6648 8.10703 16.7492 8.18906 16.7492 8.29453C16.7492 8.33906 16.7328 8.38125 16.7047 8.41641L13.6602 12.0469L16.707 15.6797C16.7352 15.7148 16.7516 15.757 16.7516 15.8016C16.7516 15.9047 16.6672 15.9891 16.5641 15.9891Z" fill="#E4E4E4"/>
</svg>
