<svg width="32" height="36" viewBox="0 0 32 36" fill="none" xmlns="http://www.w3.org/2000/svg">
<path d="M1.39124 2.76923C1.39124 1.23983 2.63705 0 4.17384 0H21.2173L26.4347 4.5L31.9999 9.34615V33.2308C31.9999 34.7602 30.7541 36 29.2173 36H4.17384C2.63705 36 1.39124 34.7602 1.39124 33.2308V2.76923Z" fill="#ECECEC"/>
<path d="M21.2175 0L26.4349 4.5L32.0001 9.34615H21.2175V0Z" fill="#DADADA"/>
<rect y="15.2306" width="25.0435" height="13.8462" rx="4" fill="#FF7A00"/>
<path d="M4.728 24.9135H5.912V22.5135H8.016V21.5295H5.912V19.9775H8.376V18.9935H4.728V24.9135ZM9.40769 24.9135H10.5917V18.9935H9.40769V24.9135ZM12.0483 24.9135H15.6403V23.9215H13.2323V18.9935H12.0483V24.9135ZM16.6733 24.9135H20.3933V23.9215H17.8573V22.3455H19.9293V21.3455H17.8573V19.9775H20.3053V18.9935H16.6733V24.9135Z" fill="white"/>
</svg>
